<?xml version="1.0" encoding="UTF-8" standalone="no"?>
<!-- Created with Inkscape (http://www.inkscape.org/) -->

<svg
   xmlns:dc="http://purl.org/dc/elements/1.1/"
   xmlns:cc="http://creativecommons.org/ns#"
   xmlns:rdf="http://www.w3.org/1999/02/22-rdf-syntax-ns#"
   xmlns:svg="http://www.w3.org/2000/svg"
   xmlns="http://www.w3.org/2000/svg"
   xmlns:sodipodi="http://sodipodi.sourceforge.net/DTD/sodipodi-0.dtd"
   xmlns:inkscape="http://www.inkscape.org/namespaces/inkscape"
   width="1024"
   height="83"
   viewBox="0 0 270.93333 21.960417"
   version="1.1"
   id="svg8"
   inkscape:version="0.92.1 r15371"
   sodipodi:docname="BruceBannerFinalHollow.svg">
  <defs
     id="defs2" />
  <sodipodi:namedview
     id="base"
     pagecolor="#ffffff"
     bordercolor="#666666"
     borderopacity="1.0"
     inkscape:pageopacity="0"
     inkscape:pageshadow="2"
     inkscape:zoom="0.98994949"
     inkscape:cx="362.67101"
     inkscape:cy="136.97244"
     inkscape:document-units="mm"
     inkscape:current-layer="layer1"
     showgrid="false"
     units="px"
     showguides="false"
     inkscape:guide-bbox="true"
     inkscape:lockguides="false"
     inkscape:window-width="1920"
     inkscape:window-height="1005"
     inkscape:window-x="-9"
     inkscape:window-y="-9"
     inkscape:window-maximized="1">
    <sodipodi:guide
       position="0,95.415224"
       orientation="1,0"
       id="guide5040"
       inkscape:locked="false" />
    <sodipodi:guide
       position="270.93334,74.83547"
       orientation="1,0"
       id="guide5042"
       inkscape:locked="false"
       inkscape:label=""
       inkscape:color="rgb(0,0,255)" />
    <sodipodi:guide
       position="0,0"
       orientation="0,1"
       id="guide5044"
       inkscape:locked="false"
       inkscape:label=""
       inkscape:color="rgb(0,0,255)" />
    <sodipodi:guide
       position="171.78749,37.30625"
       orientation="0,1"
       id="guide5046"
       inkscape:locked="false"
       inkscape:label=""
       inkscape:color="rgb(0,0,255)" />
    <sodipodi:guide
       position="135.46667,118.93494"
       orientation="1,0"
       id="guide5048"
       inkscape:locked="false"
       inkscape:label=""
       inkscape:color="rgb(0,0,255)" />
    <sodipodi:guide
       position="174.24702,26.458334"
       orientation="0,1"
       id="guide5050"
       inkscape:locked="false"
       inkscape:label=""
       inkscape:color="rgb(0,0,255)" />
    <sodipodi:guide
       position="58.598844,33.508917"
       orientation="0,1"
       id="guide5119"
       inkscape:locked="false" />
    <sodipodi:guide
       position="162.16579,19.510676"
       orientation="0,1"
       id="guide5121"
       inkscape:locked="false"
       inkscape:label=""
       inkscape:color="rgb(0,0,255)" />
    <sodipodi:guide
       position="167.9789,53"
       orientation="0,1"
       id="guide5123"
       inkscape:locked="false"
       inkscape:label=""
       inkscape:color="rgb(0,0,255)" />
    <sodipodi:guide
       position="170.65159,10.980208"
       orientation="0,1"
       id="guide5125"
       inkscape:locked="false"
       inkscape:label=""
       inkscape:color="rgb(0,0,255)" />
  </sodipodi:namedview>
  <metadata
     id="metadata5">
    <rdf:RDF>
      <cc:Work
         rdf:about="">
        <dc:format>image/svg+xml</dc:format>
        <dc:type
           rdf:resource="http://purl.org/dc/dcmitype/StillImage" />
        <dc:title></dc:title>
      </cc:Work>
    </rdf:RDF>
  </metadata>
  <g
     inkscape:label="Layer 1"
     inkscape:groupmode="layer"
     id="layer1"
     transform="translate(0,-275.03957)">
    <rect
       style="opacity:0.98999999;fill:#253d70;fill-opacity:0.94117647;stroke:none;stroke-width:1.28978372;stroke-miterlimit:4;stroke-dasharray:none;stroke-opacity:1"
       id="rect5052"
       width="270.93332"
       height="22.007275"
       x="0"
       y="275.06119" />
    <g
       aria-label="TECH RuLES oF PLAY 2.0 "
       style="font-style:normal;font-weight:normal;font-size:22.57777786px;line-height:1.25;font-family:sans-serif;letter-spacing:0px;word-spacing:0px;fill:#ffffff;fill-opacity:1;stroke:#ff9900;stroke-width:0.66145831;stroke-miterlimit:4;stroke-dasharray:none;stroke-opacity:1"
       id="text5131">
      <path
         style="font-style:normal;font-variant:normal;font-weight:normal;font-stretch:normal;font-size:19.05000114px;font-family:'Star Jedi';-inkscape-font-specification:'Star Jedi';fill:#ffffff;fill-opacity:1;stroke:#ff9900;stroke-width:2.5;stroke-miterlimit:4;stroke-dasharray:none;stroke-opacity:1"
         d="M 13.652344 16.232422 L 13.652344 31.349609 L 29.753906 31.349609 L 29.753906 66.998047 L 46.277344 66.998047 L 46.277344 31.349609 L 48.457031 31.349609 L 59.003906 31.349609 L 59.003906 66.998047 L 106.81641 66.998047 L 106.81641 51.880859 L 75.527344 51.880859 L 75.527344 46.044922 L 92.964844 46.044922 L 92.964844 37.185547 L 75.527344 37.185547 L 75.527344 31.349609 L 102.52734 31.349609 L 102.52734 16.232422 L 62.378906 16.232422 L 48.457031 16.232422 L 13.652344 16.232422 z "
         transform="matrix(0.26458333,0,0,0.26458333,0,275.03957)"
         id="path5182" />
      <path
         style="font-style:normal;font-variant:normal;font-weight:normal;font-stretch:normal;font-size:19.05000114px;font-family:'Star Jedi';-inkscape-font-specification:'Star Jedi';fill:#ffffff;fill-opacity:1;stroke:#ff9900;stroke-width:2.5;stroke-miterlimit:4;stroke-dasharray:none;stroke-opacity:1"
         d="M 133.39453 15.107422 C 128.14453 15.388669 124.17188 16.162122 121.47656 17.427734 C 118.78125 18.669939 116.10937 20.334001 113.46094 22.419922 C 110.83594 24.482435 108.77344 27.083998 107.27344 30.224609 C 105.79687 33.341813 105.05859 36.939468 105.05859 41.017578 C 105.05859 45.14258 105.79687 48.775379 107.27344 51.916016 C 108.77344 55.033194 110.83594 57.634757 113.46094 59.720703 C 116.10937 61.783191 118.78125 63.447253 121.47656 64.712891 C 124.17188 65.95507 128.14453 66.7168 133.39453 66.998047 C 138.83203 66.7168 142.98047 66.060554 145.83984 65.029297 C 148.69922 63.998065 151.58203 62.123062 154.48828 59.404297 L 144.50391 48.294922 C 142.81641 49.701158 141.31641 50.708974 140.00391 51.318359 C 138.69141 51.92777 136.53516 52.326207 133.53516 52.513672 C 130.62891 52.138667 128.46094 51.541012 127.03125 50.720703 C 125.60156 49.900394 124.37109 48.787121 123.33984 47.380859 C 122.30858 45.974623 121.69921 43.865232 121.51172 41.052734 C 121.69922 38.240212 122.30859 36.130846 123.33984 34.724609 C 124.37109 33.318348 125.60156 32.205074 127.03125 31.384766 C 128.46094 30.564457 130.62891 29.966802 133.53516 29.591797 C 136.53516 29.779312 138.69141 30.177749 140.00391 30.787109 C 141.31641 31.396495 142.81641 32.404311 144.50391 33.810547 L 146.71484 31.349609 L 156.73828 31.349609 L 156.73828 66.998047 L 173.26172 66.998047 L 173.26172 48.716797 L 186.55078 48.716797 L 186.55078 66.998047 L 203.07422 66.998047 L 203.07422 16.232422 L 186.55078 16.232422 L 186.55078 33.740234 L 173.26172 33.740234 L 173.26172 16.232422 L 146.19141 16.232422 L 146.19141 17.214844 C 146.07443 17.169864 145.95674 17.118331 145.83984 17.076172 C 142.98047 16.044915 138.83203 15.388669 133.39453 15.107422 z "
         transform="matrix(0.26458333,0,0,0.26458333,0,275.03957)"
         id="path5186" />
      <path
         style="font-style:normal;font-variant:normal;font-weight:normal;font-stretch:normal;font-size:19.05000114px;font-family:'Star Jedi';-inkscape-font-specification:'Star Jedi';fill:#ffffff;fill-opacity:1;stroke:#ff9900;stroke-width:2.5;stroke-miterlimit:4;stroke-dasharray:none;stroke-opacity:1"
         d="M 240.12891 16.232422 L 240.12891 66.998047 L 258.48047 66.998047 L 258.48047 50.228516 L 274.58203 66.998047 L 306.57422 66.998047 L 306.57422 65.980469 C 307.31268 66.228994 308.07314 66.451359 308.85938 66.646484 C 312.09374 67.419927 315.26953 67.84181 318.38672 67.912109 C 322.13672 67.818352 325.53516 67.302734 328.58203 66.365234 C 331.65235 65.427735 334.19531 64.115243 336.21094 62.427734 C 338.25 60.740251 339.92578 58.642583 341.23828 56.134766 C 342.57421 53.603515 343.27733 50.228525 343.34766 46.009766 L 343.34766 31.349609 L 346.01953 31.349609 L 346.01953 66.998047 L 390.03516 66.998047 L 390.03516 51.880859 L 362.54297 51.880859 L 362.54297 16.232422 L 343.34766 16.232422 L 326.82422 16.232422 L 326.82422 46.255859 C 326.91797 49.583985 326.13281 51.951186 324.46875 53.357422 C 322.80469 54.763683 320.73047 55.490243 318.24609 55.537109 C 315.15234 55.443352 312.87891 54.728515 311.42578 53.392578 C 309.97266 52.056641 309.31641 49.677718 309.45703 46.255859 L 309.45703 16.232422 L 292.93359 16.232422 L 292.93359 46.044922 C 292.93359 48.196755 293.09969 50.140565 293.42773 51.880859 L 279.43359 51.880859 L 275.63672 47.029297 C 279.57422 46.091798 282.59766 44.802727 284.70703 43.162109 C 286.81641 41.521492 288.29297 39.48244 289.13672 37.044922 C 289.98046 34.607429 289.93359 31.138678 288.99609 26.638672 C 287.77734 23.638684 285.85547 21.248038 283.23047 19.466797 C 280.60547 17.685531 277.25391 16.607427 273.17578 16.232422 L 240.12891 16.232422 z M 381.59766 16.232422 L 381.59766 31.349609 L 392.14453 31.349609 L 392.14453 66.998047 L 439.95703 66.998047 L 464.84766 66.998047 C 472.16019 65.7793 475.88675 62.029294 476.02734 55.748047 C 476.16797 49.4668 472.44141 42.998049 464.84766 36.341797 C 460.60546 32.826206 461.4961 31.162145 467.51953 31.349609 L 483.48047 31.349609 L 483.48047 16.232422 L 452.19141 16.232422 C 445.72264 16.232422 441.8789 19.37305 440.66016 25.654297 C 439.44141 31.935569 442.91016 38.826178 451.06641 46.326172 C 456.01172 50.216767 455.16798 52.068324 448.53516 51.880859 L 439.95703 51.880859 L 408.66797 51.880859 L 408.66797 46.044922 L 426.10547 46.044922 L 426.10547 37.185547 L 408.66797 37.185547 L 408.66797 31.349609 L 435.66797 31.349609 L 435.66797 16.232422 L 381.59766 16.232422 z M 258.48047 28.888672 L 271.24219 28.888672 C 271.80469 28.888672 272.4961 29.205097 273.31641 29.837891 C 274.16015 30.447276 274.64062 31.724599 274.75781 33.669922 C 274.71094 35.708977 274.28906 36.986325 273.49219 37.501953 C 272.69531 37.994123 271.95703 38.240234 271.27734 38.240234 L 258.48047 38.240234 L 258.48047 28.888672 z "
         transform="matrix(0.26458333,0,0,0.26458333,0,275.03957)"
         id="path5190" />
      <path
         style="font-style:normal;font-variant:normal;font-weight:normal;font-stretch:normal;font-size:19.05000114px;font-family:'Star Jedi';-inkscape-font-specification:'Star Jedi';fill:#ffffff;fill-opacity:1;stroke:#ff9900;stroke-width:2.5;stroke-miterlimit:4;stroke-dasharray:none;stroke-opacity:1"
         d="M 540.60938 15.845703 C 536.03907 15.845703 531.94922 16.419912 528.33984 17.568359 C 524.73047 18.693348 521.6836 20.35741 519.19922 22.560547 C 516.71486 24.763684 514.82813 27.482428 513.53906 30.716797 C 512.24999 33.927732 511.60547 37.654292 511.60547 41.896484 C 511.60547 47.498047 512.73047 52.244145 514.98047 56.134766 C 517.23047 60.001953 520.53515 62.931639 524.89453 64.923828 C 529.27735 66.892584 534.51564 67.876953 540.60938 67.876953 C 546.70313 67.876953 551.9414 66.892584 556.32422 64.923828 C 560.73047 62.955072 564.09376 60.013663 566.41406 56.099609 C 568.73439 52.185531 569.89453 47.451155 569.89453 41.896484 C 569.89453 37.959954 569.30011 34.450383 568.13477 31.349609 L 572.28516 31.349609 L 572.28516 66.998047 L 588.80859 66.998047 L 588.80859 46.044922 L 606.24609 46.044922 L 606.24609 37.185547 L 588.80859 37.185547 L 588.80859 31.349609 L 615.80859 31.349609 L 615.80859 16.232422 L 561.73828 16.232422 L 561.73828 22.242188 C 560.15156 20.917251 558.35328 19.786534 556.32422 18.869141 C 551.91797 16.853493 546.6797 15.845703 540.60938 15.845703 z M 540.50391 29.873047 C 545.09764 29.873047 548.10937 31.091804 549.53906 33.529297 C 550.96878 35.943357 551.75393 38.779308 551.89453 42.037109 C 551.75391 44.334004 551.47265 46.302742 551.05078 47.943359 C 550.65234 49.560544 549.62111 51.00194 547.95703 52.267578 C 546.31641 53.533191 543.83203 54.166016 540.50391 54.166016 C 536.19139 54.166016 533.29687 52.958982 531.82031 50.544922 C 530.36721 48.130862 529.64062 45.294936 529.64062 42.037109 C 529.64062 33.927755 533.26173 29.873047 540.50391 29.873047 z "
         transform="matrix(0.26458333,0,0,0.26458333,0,275.03957)"
         id="path5200" />
      <path
         style="font-style:normal;font-variant:normal;font-weight:normal;font-stretch:normal;font-size:19.05000114px;font-family:'Star Jedi';-inkscape-font-specification:'Star Jedi';fill:#ffffff;fill-opacity:1;stroke:#ff9900;stroke-width:2.5;stroke-miterlimit:4;stroke-dasharray:none;stroke-opacity:1"
         d="M 641.89453 16.232422 L 641.89453 31.349609 L 652.44141 31.349609 L 652.44141 66.998047 L 670.79297 66.998047 L 670.79297 50.228516 L 686.68359 50.228516 C 690.90235 49.595722 694.27734 48.201193 696.80859 46.044922 C 699.33984 43.888676 700.88672 41.990227 701.44922 40.349609 C 702.01176 38.708992 702.38675 36.95117 702.57422 35.076172 C 702.67229 34.095426 702.59474 32.843356 702.35938 31.349609 L 705.17578 31.349609 L 705.17578 66.998047 L 749.19141 66.998047 L 764.58984 66.998047 L 767.78906 57.857422 L 782.87109 57.857422 L 786.07031 66.998047 L 805.26562 66.998047 L 788.28516 16.232422 L 745.67578 16.232422 L 745.67578 31.349609 L 758.08594 31.349609 L 749.19141 58.433594 L 749.19141 51.880859 L 721.69922 51.880859 L 721.69922 16.232422 L 694.62891 16.232422 L 694.62891 18.808594 C 692.12727 17.422629 689.08185 16.562868 685.48828 16.232422 L 641.89453 16.232422 z M 797.70703 16.232422 L 797.70703 31.349609 L 808.25391 31.349609 L 820.06641 48.365234 L 820.06641 66.998047 L 836.66016 66.998047 L 836.66016 48.365234 L 858.80859 16.232422 L 838.76953 16.232422 L 828.43359 31.912109 L 817.95703 16.232422 L 797.70703 16.232422 z M 775.73438 27.482422 L 782.44922 47.591797 L 768.45703 47.591797 L 775.73438 27.482422 z M 670.79297 28.888672 L 683.55469 28.888672 C 684.11718 28.888672 684.8086 29.205097 685.62891 29.837891 C 686.47267 30.447276 686.95315 31.724599 687.07031 33.669922 C 687.02345 35.708977 686.60156 36.986325 685.80469 37.501953 C 685.00781 37.994123 684.26953 38.240234 683.58984 38.240234 L 670.79297 38.240234 L 670.79297 28.888672 z "
         transform="matrix(0.26458333,0,0,0.26458333,0,275.03957)"
         id="path5204" />
      <path
         d="m 240.32347,289.52907 h 5.44153 v 3.23701 h -10.51099 v -3.77651 q 2.19522,-1.09761 3.88814,-2.18591 0.84646,-0.58602 1.33015,-1.15342 0.49299,-0.56741 0.49299,-1.32085 0,-0.96738 -0.71623,-1.41387 -0.71624,-0.45579 -1.75803,-0.45579 -1.64642,0 -2.96727,0.56741 v -3.49746 q 1.0604,-0.19534 2.1022,-0.30696 1.0418,-0.11162 2.1022,-0.11162 2.55798,0 4.29741,1.00459 1.73943,1.00459 1.73943,3.39514 0,1.08831 -0.49299,1.99988 -0.48369,0.91157 -1.25574,1.61851 -0.77205,0.69763 -1.5906,1.19992 -0.81856,0.5023 -2.1022,1.16272 z"
         style="font-style:normal;font-variant:normal;font-weight:normal;font-stretch:normal;font-size:19.05000114px;font-family:'Star Jedi';-inkscape-font-specification:'Star Jedi';fill:#ffffff;fill-opacity:1;stroke:#ff9900;stroke-width:0.66145831;stroke-miterlimit:4;stroke-dasharray:none;stroke-opacity:1"
         id="path5212" />
      <path
         d="m 247.59746,292.76608 v -3.6928 h 4.14858 v 3.6928 z"
         style="font-style:normal;font-variant:normal;font-weight:normal;font-stretch:normal;font-size:19.05000114px;font-family:'Star Jedi';-inkscape-font-specification:'Star Jedi';fill:#ffffff;fill-opacity:1;stroke:#ff9900;stroke-width:0.66145831;stroke-miterlimit:4;stroke-dasharray:none;stroke-opacity:1"
         id="path5214" />
      <path
         d="m 253.6529,286.05951 q 0,-1.50688 0.42788,-2.77192 0.43719,-1.27434 1.27434,-2.21382 0.84646,-0.94878 2.0836,-1.45107 1.23713,-0.5116 2.84634,-0.5116 1.51618,0 2.73471,0.48369 1.22784,0.48369 2.0836,1.41387 0.86506,0.92087 1.31154,2.20452 0.45579,1.27434 0.45579,2.84633 0,2.0929 -0.75344,3.6649 -0.75344,1.56269 -2.25103,2.41845 -1.48828,0.85577 -3.58117,0.85577 -2.0836,0 -3.59048,-0.86507 -1.49759,-0.87436 -2.26963,-2.45566 -0.77205,-1.5813 -0.77205,-3.61839 z m 4.99505,0 q 0,1.00459 0.0372,1.63711 0.0372,0.63252 0.17674,1.15342 0.14883,0.5209 0.49299,0.83716 0.35347,0.31626 0.93018,0.31626 0.73483,0 1.0883,-0.5209 0.35347,-0.5302 0.42788,-1.30224 0.0837,-0.78135 0.0837,-2.12081 0,-1.39526 -0.0837,-2.17661 -0.0744,-0.78134 -0.42788,-1.28364 -0.34416,-0.50229 -1.0883,-0.50229 -0.76275,0 -1.12552,0.51159 -0.35346,0.5023 -0.43718,1.28365 -0.0744,0.77204 -0.0744,2.1673 z"
         style="font-style:normal;font-variant:normal;font-weight:normal;font-stretch:normal;font-size:19.05000114px;font-family:'Star Jedi';-inkscape-font-specification:'Star Jedi';fill:#ffffff;fill-opacity:1;stroke:#ff9900;stroke-width:0.66145831;stroke-miterlimit:4;stroke-dasharray:none;stroke-opacity:1"
         id="path5216" />
    </g>
  </g>
</svg>